<svg width="246" height="281" viewBox="0 0 246 281" fill="none" xmlns="http://www.w3.org/2000/svg">
<path d="M245.174 158.297C245.174 226 245.174 280.884 122.587 280.884C0 280.884 0 226 0 158.297C0 90.5941 54.8841 53 122.587 53C190.29 53 245.174 90.5941 245.174 158.297Z" fill="white"/>
<path d="M223.055 160.057C223.055 215.496 223.055 260.439 122.742 260.439C22.4297 260.439 22.4297 215.496 22.4297 160.057C22.4297 104.617 74.2994 203.95 103.427 172.588C158.257 113.553 223.055 104.617 223.055 160.057Z" fill="#1100FF"/>
<path d="M234.055 158.869C234.055 220.509 234.055 270.479 122.528 270.479C11 270.479 11 220.509 11 158.869C11 97.2279 60.9326 63 122.528 63C184.123 63 234.055 97.2279 234.055 158.869Z" fill="#003CFF" fill-opacity="0.26"/>
<path d="M179.752 55.1707C179.752 85.4357 179.752 109.97 124.923 109.97C70.0938 109.97 70.0938 85.4357 70.0938 55.1707C70.0938 24.9057 94.6416 8.1001 124.923 8.1001C155.204 8.1001 179.752 24.9057 179.752 55.1707Z" fill="white"/>
<path d="M186.295 22.8875C186.295 37.6035 186.295 49.5332 124.924 49.5332C63.5527 49.5332 63.5527 37.6035 63.5527 22.8875C63.5527 8.17152 91.0296 0 124.924 0C158.819 0 186.295 8.17152 186.295 22.8875Z" fill="white"/>
<path d="M168.538 18.4643C168.538 25.1281 168.538 30.5302 124.768 30.5302C80.998 30.5302 80.998 25.1281 80.998 18.4643C80.998 11.8004 100.595 8.1001 124.768 8.1001C148.941 8.1001 168.538 11.8004 168.538 18.4643Z" fill="black"/>
<circle cx="124.5" cy="192.5" r="41.5" fill="#FFEA00"/>
</svg>
